<svg width="585" height="304" viewBox="0 0 585 304" fill="none" xmlns="http://www.w3.org/2000/svg">
<rect width="585" height="304" fill="#8F0AF7"/>
<path d="M42.5406 228.514C48.8429 232.123 68.3013 237.176 95.7163 228.514C129.985 217.686 146.529 204.36 181.979 206.859C217.43 209.358 263.515 235.177 282.422 234.344C301.329 233.511 343.87 206.859 374.593 206.859C405.317 206.859 401.772 234.344 428.951 234.344C436.435 235.177 454.475 235.177 466.765 228.514" stroke="#620B70" stroke-opacity="0.5" stroke-width="10"/>
<path d="M71.7758 147.011C71.7758 138.275 69.6158 131.555 65.2958 126.851C60.9758 122.147 55.2158 119.795 48.0158 119.795C43.9838 119.795 40.8158 119.939 38.5118 120.227C36.3038 120.515 34.5278 120.851 33.1838 121.235V168.467C34.8158 169.811 37.1678 171.107 40.2398 172.355C43.3118 173.603 46.6718 174.227 50.3198 174.227C54.1598 174.227 57.4238 173.555 60.1118 172.211C62.8958 170.771 65.1518 168.851 66.8798 166.451C68.6078 163.955 69.8558 161.075 70.6238 157.811C71.3918 154.451 71.7758 150.851 71.7758 147.011ZM85.7438 147.011C85.7438 152.675 84.9758 157.907 83.4398 162.707C81.9998 167.507 79.8398 171.635 76.9598 175.091C74.0798 178.547 70.5278 181.235 66.3038 183.155C62.1758 185.075 57.4238 186.035 52.0478 186.035C47.7278 186.035 43.8878 185.459 40.5278 184.307C37.2638 183.155 34.8158 182.051 33.1838 180.995V210.947H19.7918V111.731C22.9598 110.963 26.8958 110.147 31.5998 109.283C36.3998 108.323 41.9198 107.843 48.1598 107.843C53.9198 107.843 59.1038 108.755 63.7118 110.579C68.3198 112.403 72.2558 114.995 75.5198 118.355C78.7838 121.715 81.2798 125.843 83.0078 130.739C84.8318 135.539 85.7438 140.963 85.7438 147.011ZM127.053 185.747C118.797 185.555 112.941 183.779 109.485 180.419C106.029 177.059 104.301 171.827 104.301 164.723V74.8668L117.693 72.5628V162.563C117.693 164.771 117.885 166.595 118.269 168.035C118.653 169.475 119.277 170.627 120.141 171.491C121.005 172.355 122.157 173.027 123.597 173.507C125.037 173.891 126.813 174.227 128.925 174.515L127.053 185.747ZM169.308 174.659C172.476 174.659 175.26 174.611 177.66 174.515C180.156 174.323 182.22 174.035 183.852 173.651V151.331C182.892 150.851 181.308 150.467 179.1 150.179C176.988 149.795 174.396 149.603 171.324 149.603C169.308 149.603 167.148 149.747 164.844 150.035C162.636 150.323 160.572 150.947 158.652 151.907C156.828 152.771 155.292 154.019 154.044 155.651C152.796 157.187 152.172 159.251 152.172 161.843C152.172 166.643 153.708 170.003 156.78 171.923C159.852 173.747 164.028 174.659 169.308 174.659ZM168.156 107.555C173.532 107.555 178.044 108.275 181.692 109.715C185.436 111.059 188.412 113.027 190.62 115.619C192.924 118.115 194.556 121.139 195.516 124.691C196.476 128.147 196.956 131.987 196.956 136.211V183.011C195.804 183.203 194.172 183.491 192.06 183.875C190.044 184.163 187.74 184.451 185.148 184.739C182.556 185.027 179.724 185.267 176.652 185.459C173.676 185.747 170.7 185.891 167.724 185.891C163.5 185.891 159.612 185.459 156.06 184.595C152.508 183.731 149.436 182.387 146.844 180.563C144.252 178.643 142.236 176.147 140.796 173.075C139.356 170.003 138.636 166.307 138.636 161.987C138.636 157.859 139.452 154.307 141.084 151.331C142.812 148.355 145.116 145.955 147.996 144.131C150.876 142.307 154.236 140.963 158.076 140.099C161.916 139.235 165.948 138.803 170.172 138.803C171.516 138.803 172.908 138.899 174.348 139.091C175.788 139.187 177.132 139.379 178.38 139.667C179.724 139.859 180.876 140.051 181.836 140.243C182.796 140.435 183.468 140.579 183.852 140.675V136.931C183.852 134.723 183.612 132.563 183.132 130.451C182.652 128.243 181.788 126.323 180.54 124.691C179.292 122.963 177.564 121.619 175.356 120.659C173.244 119.603 170.46 119.075 167.004 119.075C162.588 119.075 158.7 119.411 155.34 120.083C152.076 120.659 149.628 121.283 147.996 121.955L146.412 110.867C148.14 110.099 151.02 109.379 155.052 108.707C159.084 107.939 163.452 107.555 168.156 107.555ZM208.305 198.275C209.361 198.755 210.705 199.187 212.337 199.571C214.065 200.051 215.745 200.291 217.377 200.291C222.657 200.291 226.785 199.091 229.761 196.691C232.737 194.387 235.425 190.595 237.825 185.315C231.777 173.795 226.113 161.603 220.833 148.739C215.649 135.779 211.329 122.675 207.873 109.427H222.273C223.329 113.747 224.577 118.403 226.017 123.395C227.553 128.387 229.233 133.523 231.057 138.803C232.881 144.083 234.849 149.363 236.961 154.643C239.073 159.923 241.281 165.011 243.585 169.907C247.233 159.827 250.401 149.843 253.089 139.955C255.777 130.067 258.321 119.891 260.721 109.427H274.545C271.089 123.539 267.249 137.123 263.025 150.179C258.801 163.139 254.241 175.283 249.345 186.611C247.425 190.931 245.409 194.627 243.297 197.699C241.281 200.867 239.025 203.459 236.529 205.475C234.033 207.491 231.201 208.979 228.033 209.939C224.961 210.899 221.457 211.379 217.521 211.379C216.465 211.379 215.361 211.283 214.209 211.091C213.057 210.995 211.905 210.803 210.753 210.515C209.697 210.323 208.689 210.083 207.729 209.795C206.865 209.507 206.241 209.267 205.857 209.075L208.305 198.275Z" fill="white"/>
<path d="M65.2958 126.851L66.0323 126.174L66.0323 126.174L65.2958 126.851ZM38.5118 120.227L38.3878 119.235L38.3825 119.235L38.5118 120.227ZM33.1838 121.235L32.9091 120.273L32.1838 120.481V121.235H33.1838ZM33.1838 168.467H32.1838V168.939L32.5481 169.239L33.1838 168.467ZM40.2398 172.355L40.6162 171.428L40.6162 171.428L40.2398 172.355ZM60.1118 172.211L60.559 173.105L60.5712 173.099L60.1118 172.211ZM66.8798 166.451L67.6913 167.035L67.6967 167.028L67.702 167.02L66.8798 166.451ZM70.6238 157.811L71.5972 158.04L71.5987 158.034L70.6238 157.811ZM83.4398 162.707L82.4874 162.402L82.4846 162.411L82.482 162.419L83.4398 162.707ZM76.9598 175.091L76.1916 174.451L76.1916 174.451L76.9598 175.091ZM66.3038 183.155L65.89 182.244L65.8821 182.248L66.3038 183.155ZM40.5278 184.307L40.195 185.25L40.2035 185.253L40.5278 184.307ZM33.1838 180.995L33.727 180.155L32.1838 179.157V180.995H33.1838ZM33.1838 210.947V211.947H34.1838V210.947H33.1838ZM19.7918 210.947H18.7918V211.947H19.7918V210.947ZM19.7918 111.731L19.5562 110.759L18.7918 110.944V111.731H19.7918ZM31.5998 109.283L31.7804 110.266L31.7882 110.265L31.7959 110.263L31.5998 109.283ZM75.5198 118.355L74.8025 119.052L74.8025 119.052L75.5198 118.355ZM83.0078 130.739L82.0648 131.072L82.0688 131.083L82.073 131.094L83.0078 130.739ZM72.7758 147.011C72.7758 138.117 70.5757 131.122 66.0323 126.174L64.5593 127.527C68.6559 131.988 70.7758 138.432 70.7758 147.011H72.7758ZM66.0323 126.174C61.4978 121.237 55.4563 118.795 48.0158 118.795V120.795C54.9752 120.795 60.4538 123.057 64.5593 127.527L66.0323 126.174ZM48.0158 118.795C43.9677 118.795 40.7521 118.939 38.3878 119.235L38.6358 121.219C40.8795 120.939 43.9999 120.795 48.0158 120.795V118.795ZM38.3825 119.235C36.1505 119.526 34.3201 119.87 32.9091 120.273L33.4585 122.196C34.7355 121.831 36.4571 121.503 38.6411 121.218L38.3825 119.235ZM32.1838 121.235V168.467H34.1838V121.235H32.1838ZM32.5481 169.239C34.2895 170.673 36.7445 172.014 39.8634 173.281L40.6162 171.428C37.5911 170.199 35.3421 168.949 33.8195 167.695L32.5481 169.239ZM39.8634 173.281C43.0664 174.583 46.5557 175.227 50.3198 175.227V173.227C46.7879 173.227 43.5572 172.623 40.6162 171.428L39.8634 173.281ZM50.3198 175.227C54.2732 175.227 57.699 174.535 60.559 173.105L59.6646 171.316C57.1485 172.574 54.0464 173.227 50.3198 173.227V175.227ZM60.5712 173.099C63.4863 171.591 65.866 169.57 67.6913 167.035L66.0683 165.867C64.4376 168.131 62.3053 169.95 59.6524 171.323L60.5712 173.099ZM67.702 167.02C69.5083 164.411 70.8035 161.413 71.5972 158.04L69.6504 157.582C68.908 160.737 67.7073 163.499 66.0576 165.882L67.702 167.02ZM71.5987 158.034C72.3851 154.593 72.7758 150.917 72.7758 147.011H70.7758C70.7758 150.784 70.3985 154.309 69.6489 157.588L71.5987 158.034ZM84.7438 147.011C84.7438 152.584 83.9882 157.712 82.4874 162.402L84.3922 163.012C85.9634 158.102 86.7438 152.766 86.7438 147.011H84.7438ZM82.482 162.419C81.0763 167.105 78.9759 171.109 76.1916 174.451L77.728 175.731C80.7037 172.16 82.9233 167.909 84.3976 162.994L82.482 162.419ZM76.1916 174.451C73.411 177.787 69.9815 180.385 65.89 182.244L66.7176 184.065C71.0741 182.085 74.7486 179.306 77.728 175.731L76.1916 174.451ZM65.8821 182.248C61.9079 184.097 57.3042 185.035 52.0478 185.035V187.035C57.5434 187.035 62.4437 186.053 66.7255 184.062L65.8821 182.248ZM52.0478 185.035C47.8151 185.035 44.088 184.47 40.8521 183.361L40.2035 185.253C43.6876 186.447 47.6405 187.035 52.0478 187.035V185.035ZM40.8606 183.364C37.6227 182.221 35.2611 181.148 33.727 180.155L32.6405 181.834C34.3705 182.954 36.9048 184.089 40.195 185.25L40.8606 183.364ZM32.1838 180.995V210.947H34.1838V180.995H32.1838ZM33.1838 209.947H19.7918V211.947H33.1838V209.947ZM20.7918 210.947V111.731H18.7918V210.947H20.7918ZM20.0274 112.703C23.1709 111.941 27.0872 111.128 31.7804 110.266L31.4191 108.299C26.7044 109.165 22.7486 109.985 19.5562 110.759L20.0274 112.703ZM31.7959 110.263C36.5166 109.319 41.9687 108.843 48.1598 108.843V106.843C41.8709 106.843 36.283 107.326 31.4037 108.302L31.7959 110.263ZM48.1598 108.843C53.8139 108.843 58.8703 109.738 63.3437 111.509L64.0798 109.649C59.3373 107.772 54.0256 106.843 48.1598 106.843V108.843ZM63.3437 111.509C67.8279 113.284 71.6428 115.799 74.8025 119.052L76.2371 117.658C72.8688 114.191 68.8117 111.522 64.0798 109.649L63.3437 111.509ZM74.8025 119.052C77.9554 122.297 80.3796 126.297 82.0648 131.072L83.9508 130.406C82.18 125.389 79.6122 121.132 76.2371 117.658L74.8025 119.052ZM82.073 131.094C83.847 135.762 84.7438 141.063 84.7438 147.011H86.7438C86.7438 140.863 85.8166 135.315 83.9426 130.384L82.073 131.094ZM127.053 185.747L127.029 186.747L127.896 186.767L128.039 185.911L127.053 185.747ZM109.485 180.419L110.182 179.702L110.182 179.702L109.485 180.419ZM104.301 74.8668L104.131 73.8813L103.301 74.0242V74.8668H104.301ZM117.693 72.5628H118.693V71.3761L117.523 71.5773L117.693 72.5628ZM118.269 168.035L119.235 167.777L119.235 167.777L118.269 168.035ZM120.141 171.491L119.434 172.198L119.434 172.198L120.141 171.491ZM123.597 173.507L123.28 174.456L123.309 174.465L123.339 174.473L123.597 173.507ZM128.925 174.515L129.911 174.679L130.08 173.663L129.06 173.524L128.925 174.515ZM127.076 184.747C118.906 184.557 113.365 182.797 110.182 179.702L108.788 181.136C112.516 184.761 118.687 186.553 127.029 186.747L127.076 184.747ZM110.182 179.702C106.995 176.604 105.301 171.685 105.301 164.723H103.301C103.301 171.969 105.062 177.514 108.788 181.136L110.182 179.702ZM105.301 164.723V74.8668H103.301V164.723H105.301ZM104.47 75.8523L117.862 73.5483L117.523 71.5773L104.131 73.8813L104.47 75.8523ZM116.693 72.5628V162.563H118.693V72.5628H116.693ZM116.693 162.563C116.693 164.82 116.888 166.739 117.302 168.292L119.235 167.777C118.881 166.451 118.693 164.721 118.693 162.563H116.693ZM117.302 168.292C117.722 169.865 118.42 171.185 119.434 172.198L120.848 170.784C120.133 170.069 119.583 169.084 119.235 167.777L117.302 168.292ZM119.434 172.198C120.431 173.195 121.728 173.938 123.28 174.456L123.913 172.558C122.585 172.116 121.579 171.515 120.848 170.784L119.434 172.198ZM123.339 174.473C124.832 174.871 126.652 175.214 128.79 175.506L129.06 173.524C126.973 173.239 125.241 172.91 123.854 172.541L123.339 174.473ZM127.938 174.35L126.066 185.582L128.039 185.911L129.911 174.679L127.938 174.35ZM177.66 174.515L177.7 175.514L177.718 175.513L177.736 175.512L177.66 174.515ZM183.852 173.651L184.081 174.624L184.852 174.443V173.651H183.852ZM183.852 151.331H184.852V150.713L184.299 150.436L183.852 151.331ZM179.1 150.179L178.921 151.163L178.945 151.167L178.97 151.17L179.1 150.179ZM164.844 150.035L164.72 149.043L164.714 149.043L164.844 150.035ZM158.652 151.907L159.08 152.811L159.089 152.806L159.099 152.801L158.652 151.907ZM154.044 155.651L154.82 156.281L154.829 156.27L154.838 156.258L154.044 155.651ZM156.78 171.923L156.25 172.771L156.259 172.777L156.269 172.783L156.78 171.923ZM181.692 109.715L181.324 110.645L181.339 110.651L181.354 110.656L181.692 109.715ZM190.62 115.619L189.858 116.267L189.871 116.282L189.885 116.297L190.62 115.619ZM195.516 124.691L194.55 124.952L194.552 124.958L195.516 124.691ZM196.956 183.011L197.12 183.997L197.956 183.858V183.011H196.956ZM192.06 183.875L192.201 184.865L192.22 184.862L192.239 184.859L192.06 183.875ZM185.148 184.739L185.258 185.733L185.258 185.733L185.148 184.739ZM176.652 185.459L176.589 184.461L176.572 184.462L176.555 184.463L176.652 185.459ZM156.06 184.595L156.296 183.623L156.06 184.595ZM146.844 180.563L146.248 181.366L146.258 181.374L146.268 181.381L146.844 180.563ZM140.796 173.075L139.89 173.499L139.89 173.499L140.796 173.075ZM141.084 151.331L140.219 150.829L140.213 150.839L140.207 150.85L141.084 151.331ZM147.996 144.131L147.461 143.286L147.461 143.286L147.996 144.131ZM158.076 140.099L157.856 139.123L157.856 139.123L158.076 140.099ZM174.348 139.091L174.216 140.082L174.248 140.086L174.281 140.089L174.348 139.091ZM178.38 139.667L178.155 140.641L178.196 140.651L178.238 140.657L178.38 139.667ZM181.836 140.243L182.032 139.262L182.032 139.262L181.836 140.243ZM183.852 140.675L183.609 141.645L184.852 141.956V140.675H183.852ZM183.132 130.451L182.154 130.663L182.157 130.672L183.132 130.451ZM180.54 124.691L179.729 125.276L179.737 125.287L179.745 125.298L180.54 124.691ZM175.356 120.659L174.908 121.553L174.932 121.565L174.957 121.576L175.356 120.659ZM155.34 120.083L155.513 121.068L155.525 121.066L155.536 121.063L155.34 120.083ZM147.996 121.955L147.006 122.096L147.188 123.369L148.376 122.879L147.996 121.955ZM146.412 110.867L146.006 109.953L145.315 110.26L145.422 111.008L146.412 110.867ZM155.052 108.707L155.216 109.693L155.227 109.691L155.239 109.689L155.052 108.707ZM169.308 175.659C172.485 175.659 175.283 175.611 177.7 175.514L177.62 173.516C175.236 173.611 172.466 173.659 169.308 173.659V175.659ZM177.736 175.512C180.261 175.318 182.381 175.024 184.081 174.624L183.623 172.677C182.059 173.045 180.05 173.328 177.583 173.518L177.736 175.512ZM184.852 173.651V151.331H182.852V173.651H184.852ZM184.299 150.436C183.18 149.877 181.455 149.478 179.229 149.187L178.97 151.17C181.16 151.456 182.603 151.824 183.404 152.225L184.299 150.436ZM179.279 149.195C177.088 148.797 174.432 148.603 171.324 148.603V150.603C174.359 150.603 176.887 150.793 178.921 151.163L179.279 149.195ZM171.324 148.603C169.261 148.603 167.059 148.75 164.72 149.043L164.968 151.027C167.237 150.743 169.355 150.603 171.324 150.603V148.603ZM164.714 149.043C162.4 149.345 160.228 150.001 158.204 151.012L159.099 152.801C160.915 151.893 162.871 151.301 164.973 151.026L164.714 149.043ZM158.224 151.003C156.253 151.937 154.592 153.287 153.249 155.043L154.838 156.258C155.991 154.75 157.402 153.605 159.08 152.811L158.224 151.003ZM153.268 155.02C151.835 156.783 151.172 159.093 151.172 161.843H153.172C153.172 159.409 153.756 157.59 154.82 156.281L153.268 155.02ZM151.172 161.843C151.172 166.862 152.792 170.61 156.25 172.771L157.31 171.075C154.623 169.396 153.172 166.424 153.172 161.843H151.172ZM156.269 172.783C159.552 174.732 163.928 175.659 169.308 175.659V173.659C164.127 173.659 160.151 172.762 157.29 171.063L156.269 172.783ZM168.156 108.555C173.449 108.555 177.828 109.265 181.324 110.645L182.059 108.785C178.259 107.285 173.614 106.555 168.156 106.555V108.555ZM181.354 110.656C184.961 111.951 187.781 113.829 189.858 116.267L191.381 114.97C189.042 112.225 185.91 110.167 182.03 108.774L181.354 110.656ZM189.885 116.297C192.071 118.665 193.629 121.542 194.55 124.952L196.481 124.43C195.483 120.735 193.777 117.565 191.354 114.941L189.885 116.297ZM194.552 124.958C195.484 128.313 195.956 132.062 195.956 136.211H197.956C197.956 131.912 197.467 127.98 196.479 124.423L194.552 124.958ZM195.956 136.211V183.011H197.956V136.211H195.956ZM196.791 182.024C195.632 182.218 193.994 182.507 191.881 182.891L192.239 184.859C194.349 184.475 195.975 184.188 197.12 183.997L196.791 182.024ZM191.918 182.885C189.915 183.171 187.622 183.458 185.037 183.745L185.258 185.733C187.858 185.444 190.172 185.155 192.201 184.865L191.918 182.885ZM185.037 183.745C182.464 184.031 179.648 184.27 176.589 184.461L176.714 186.457C179.799 186.264 182.648 186.023 185.258 185.733L185.037 183.745ZM176.555 184.463C173.611 184.748 170.667 184.891 167.724 184.891V186.891C170.732 186.891 173.74 186.745 176.748 186.454L176.555 184.463ZM167.724 184.891C163.567 184.891 159.76 184.466 156.296 183.623L155.823 185.566C159.464 186.452 163.432 186.891 167.724 186.891V184.891ZM156.296 183.623C152.847 182.784 149.894 181.487 147.419 179.745L146.268 181.381C148.977 183.287 152.168 184.677 155.823 185.566L156.296 183.623ZM147.439 179.759C144.987 177.943 143.075 175.58 141.701 172.65L139.89 173.499C141.397 176.713 143.516 179.343 146.248 181.366L147.439 179.759ZM141.701 172.65C140.338 169.742 139.636 166.199 139.636 161.987H137.636C137.636 166.415 138.373 170.263 139.89 173.499L141.701 172.65ZM139.636 161.987C139.636 157.991 140.425 154.612 141.96 151.812L140.207 150.85C138.478 154.002 137.636 157.727 137.636 161.987H139.636ZM141.948 151.833C143.596 148.995 145.788 146.713 148.531 144.976L147.461 143.286C144.443 145.197 142.027 147.715 140.219 150.829L141.948 151.833ZM148.531 144.976C151.3 143.222 154.55 141.917 158.295 141.074L157.856 139.123C153.921 140.009 150.451 141.392 147.461 143.286L148.531 144.976ZM158.295 141.074C162.058 140.228 166.016 139.803 170.172 139.803V137.803C165.879 137.803 161.773 138.242 157.856 139.123L158.295 141.074ZM170.172 139.803C171.468 139.803 172.816 139.895 174.216 140.082L174.48 138.1C173 137.902 171.563 137.803 170.172 137.803V139.803ZM174.281 140.089C175.674 140.181 176.965 140.367 178.155 140.641L178.605 138.692C177.298 138.391 175.901 138.192 174.414 138.093L174.281 140.089ZM178.238 140.657C179.57 140.847 180.703 141.036 181.64 141.223L182.032 139.262C181.048 139.066 179.877 138.871 178.521 138.677L178.238 140.657ZM181.64 141.223C182.6 141.415 183.251 141.555 183.609 141.645L184.094 139.705C183.685 139.602 182.991 139.454 182.032 139.262L181.64 141.223ZM184.852 140.675V136.931H182.852V140.675H184.852ZM184.852 136.931C184.852 134.65 184.604 132.415 184.107 130.229L182.157 130.672C182.62 132.71 182.852 134.796 182.852 136.931H184.852ZM184.109 130.238C183.601 127.901 182.68 125.843 181.334 124.083L179.745 125.298C180.896 126.802 181.703 128.584 182.154 130.663L184.109 130.238ZM181.35 124.105C179.984 122.214 178.105 120.764 175.754 119.742L174.957 121.576C177.022 122.474 178.599 123.712 179.729 125.276L181.35 124.105ZM175.803 119.764C173.503 118.614 170.548 118.075 167.004 118.075V120.075C170.371 120.075 172.985 120.591 174.908 121.553L175.803 119.764ZM167.004 118.075C162.54 118.075 158.583 118.414 155.144 119.102L155.536 121.063C158.816 120.407 162.636 120.075 167.004 120.075V118.075ZM155.166 119.098C151.881 119.678 149.348 120.316 147.615 121.03L148.376 122.879C149.907 122.249 152.27 121.64 155.513 121.068L155.166 119.098ZM148.986 121.813L147.402 110.725L145.422 111.008L147.006 122.096L148.986 121.813ZM146.818 111.781C148.422 111.068 151.194 110.364 155.216 109.693L154.887 107.72C150.845 108.394 147.858 109.13 146.006 109.953L146.818 111.781ZM155.239 109.689C159.201 108.934 163.506 108.555 168.156 108.555V106.555C163.398 106.555 158.966 106.943 154.865 107.724L155.239 109.689ZM208.305 198.275L208.718 197.364L207.601 196.856L207.329 198.054L208.305 198.275ZM212.337 199.571L212.604 198.607L212.585 198.602L212.566 198.597L212.337 199.571ZM229.761 196.691L229.148 195.9L229.141 195.906L229.133 195.912L229.761 196.691ZM237.825 185.315L238.735 185.729L238.937 185.283L238.71 184.85L237.825 185.315ZM220.833 148.739L219.904 149.11L219.908 149.119L220.833 148.739ZM207.873 109.427V108.427H206.578L206.905 109.679L207.873 109.427ZM222.273 109.427L223.244 109.189L223.058 108.427H222.273V109.427ZM226.017 123.395L225.056 123.672L225.058 123.68L225.061 123.689L226.017 123.395ZM231.057 138.803L230.111 139.129L230.111 139.129L231.057 138.803ZM236.961 154.643L237.889 154.271L237.889 154.271L236.961 154.643ZM243.585 169.907L242.68 170.333L243.705 172.512L244.525 170.247L243.585 169.907ZM253.089 139.955L252.124 139.692L252.124 139.692L253.089 139.955ZM260.721 109.427V108.427H259.924L259.746 109.203L260.721 109.427ZM274.545 109.427L275.516 109.665L275.819 108.427H274.545V109.427ZM263.025 150.179L263.975 150.489L263.976 150.487L263.025 150.179ZM249.345 186.611L250.259 187.017L250.263 187.008L249.345 186.611ZM243.297 197.699L242.473 197.132L242.463 197.147L242.453 197.162L243.297 197.699ZM236.529 205.475L235.9 204.697L235.9 204.697L236.529 205.475ZM228.033 209.939L227.743 208.982L227.734 208.984L228.033 209.939ZM214.209 211.091L214.373 210.104L214.333 210.098L214.292 210.094L214.209 211.091ZM210.753 210.515L210.995 209.545L210.964 209.537L210.932 209.531L210.753 210.515ZM207.729 209.795L207.412 210.744L207.427 210.748L207.441 210.753L207.729 209.795ZM205.857 209.075L204.881 208.854L204.708 209.619L205.409 209.969L205.857 209.075ZM207.891 199.185C209.026 199.701 210.438 200.151 212.108 200.544L212.566 198.597C210.972 198.222 209.695 197.808 208.718 197.364L207.891 199.185ZM212.069 200.534C213.876 201.036 215.646 201.291 217.377 201.291V199.291C215.844 199.291 214.254 199.065 212.604 198.607L212.069 200.534ZM217.377 201.291C222.799 201.291 227.178 200.059 230.388 197.469L229.133 195.912C226.392 198.123 222.514 199.291 217.377 199.291V201.291ZM230.373 197.482C233.528 195.038 236.301 191.084 238.735 185.729L236.914 184.901C234.548 190.106 231.945 193.735 229.148 195.9L230.373 197.482ZM238.71 184.85C232.678 173.36 227.027 161.196 221.758 148.359L219.908 149.119C225.199 162.01 230.876 174.23 236.939 185.78L238.71 184.85ZM221.761 148.367C216.592 135.445 212.286 122.381 208.84 109.174L206.905 109.679C210.372 122.968 214.705 136.112 219.904 149.11L221.761 148.367ZM207.873 110.427H222.273V108.427H207.873V110.427ZM221.301 109.664C222.361 114 223.613 118.669 225.056 123.672L226.977 123.118C225.541 118.137 224.296 113.494 223.244 109.189L221.301 109.664ZM225.061 123.689C226.6 128.692 228.284 133.839 230.111 139.129L232.002 138.476C230.181 133.206 228.505 128.081 226.972 123.101L225.061 123.689ZM230.111 139.129C231.941 144.425 233.914 149.72 236.032 155.014L237.889 154.271C235.783 149.006 233.821 143.741 232.002 138.476L230.111 139.129ZM236.032 155.014C238.151 160.312 240.367 165.418 242.68 170.333L244.489 169.481C242.194 164.604 239.994 159.534 237.889 154.271L236.032 155.014ZM244.525 170.247C248.182 160.143 251.358 150.133 254.054 140.217L252.124 139.692C249.443 149.553 246.283 159.511 242.644 169.567L244.525 170.247ZM254.054 140.217C256.745 130.316 259.293 120.127 261.695 109.65L259.746 109.203C257.349 119.655 254.808 129.818 252.124 139.692L254.054 140.217ZM260.721 110.427H274.545V108.427H260.721V110.427ZM273.573 109.189C270.123 123.279 266.289 136.839 262.073 149.871L263.976 150.487C268.208 137.406 272.055 123.799 275.516 109.665L273.573 109.189ZM262.074 149.869C257.859 162.802 253.309 174.917 248.427 186.214L250.263 187.008C255.172 175.648 259.743 163.475 263.975 150.489L262.074 149.869ZM248.431 186.205C246.53 190.483 244.542 194.122 242.473 197.132L244.121 198.265C246.275 195.131 248.32 191.379 250.258 187.017L248.431 186.205ZM242.453 197.162C240.486 200.254 238.299 202.76 235.9 204.697L237.157 206.253C239.75 204.158 242.076 201.48 244.14 198.236L242.453 197.162ZM235.9 204.697C233.508 206.629 230.791 208.058 227.743 208.982L228.323 210.896C231.61 209.9 234.558 208.352 237.157 206.253L235.9 204.697ZM227.734 208.984C224.778 209.908 221.377 210.379 217.521 210.379V212.379C221.536 212.379 225.144 211.889 228.331 210.893L227.734 208.984ZM217.521 210.379C216.525 210.379 215.476 210.288 214.373 210.104L214.044 212.077C215.245 212.277 216.404 212.379 217.521 212.379V210.379ZM214.292 210.094C213.195 210.003 212.096 209.82 210.995 209.545L210.51 211.485C211.713 211.786 212.918 211.987 214.126 212.087L214.292 210.094ZM210.932 209.531C209.91 209.345 208.938 209.114 208.016 208.837L207.441 210.753C208.439 211.052 209.484 211.301 210.574 211.499L210.932 209.531ZM208.045 208.846C207.188 208.56 206.621 208.339 206.304 208.18L205.409 209.969C205.861 210.195 206.542 210.453 207.412 210.744L208.045 208.846ZM206.832 209.296L209.28 198.496L207.329 198.054L204.881 208.854L206.832 209.296Z" fill="white"/>
<ellipse cx="378.853" cy="173.5" rx="73.8972" ry="72.5" fill="#FDA117"/>
<path d="M443.404 172.978L346.035 209.49L345.797 136.782L443.404 172.978Z" fill="white"/>
<line y1="-0.5" x2="415.96" y2="-0.5" transform="matrix(0.999983 -0.00585715 0.0117897 0.999931 8.27179 191.562)" stroke="#1C90FB"/>
<path d="M28.3604 37.7851C34.6627 41.3942 54.1211 46.447 81.5361 37.7851C115.805 26.9577 132.348 13.6316 167.799 16.1303C203.249 18.6289 249.335 44.4481 268.242 43.6152C287.149 42.7823 329.689 16.1303 360.413 16.1303C391.137 16.1303 387.592 43.6152 414.771 43.6152C422.255 44.4481 440.295 44.4481 452.584 37.7851" stroke="#620B70" stroke-opacity="0.5" stroke-width="10"/>
<path d="M28.3604 70.2672C34.6627 73.8763 54.1211 78.9291 81.5361 70.2672C115.805 59.4398 132.348 46.1138 167.799 48.6124C203.249 51.111 249.335 76.9302 268.242 76.0973C287.149 75.2645 329.689 48.6124 360.413 48.6124C391.137 48.6124 387.592 76.0973 414.771 76.0973C422.255 76.9302 440.295 76.9302 452.584 70.2672" stroke="#620B70" stroke-opacity="0.5" stroke-width="10"/>
<path d="M28.3604 279.319C34.6627 282.928 54.1211 287.981 81.5361 279.319C115.805 268.492 132.348 255.166 167.799 257.664C203.249 260.163 249.335 285.982 268.242 285.149C287.149 284.317 329.689 257.664 360.413 257.664C391.137 257.664 387.592 285.149 414.771 285.149C422.255 285.982 440.295 285.982 452.584 279.319" stroke="#620B70" stroke-opacity="0.5" stroke-width="10"/>
</svg>
